/* XPM */
static char *result[] = {
/* columns rows colors chars-per-pixel */
"32 32 173 2 ",
"   c #3C1D4E",
".  c #2D165D",
"X  c #331953",
"o  c #33195E",
"O  c #3C1D5F",
"+  c #4E195E",
"@  c #4D1E60",
"#  c #4D1F60",
"$  c #5E1F6C",
"%  c #4B2360",
"&  c #4B2261",
"*  c #4B2361",
"=  c #4D2060",
"-  c #4B2461",
";  c #4B2561",
":  c #4B2462",
">  c #4B2562",
",  c #4C2462",
"<  c #4C2562",
"1  c #4D2663",
"2  c #4E2663",
"3  c #4E2664",
"4  c #512565",
"5  c #522A67",
"6  c #522C67",
"7  c #542A69",
"8  c #62216F",
"9  c #672373",
"0  c #6C2578",
"q  c #673478",
"w  c #68377A",
"e  c #6D3A7E",
"r  c #792D83",
"t  c #724082",
"y  c #755586",
"u  c #85388D",
"i  c #9D3AA1",
"p  c #A23AA6",
"a  c #8E639B",
"s  c #91759E",
"d  c #91779E",
"f  c #9855A1",
"g  c #A55DAC",
"h  c #BB46BB",
"j  c #BC44BC",
"k  c #956DA0",
"l  c #A96CB0",
"z  c #B164B6",
"x  c #B76EB9",
"c  c #C045BF",
"v  c #C547C3",
"b  c #C34DC1",
"n  c #C748C5",
"m  c #C848C6",
"M  c #CF55CD",
"N  c #D055CD",
"B  c #D056CD",
"V  c #D056CE",
"C  c #D259CF",
"Z  c #D25ACF",
"A  c #D15DCE",
"S  c #DD57D7",
"D  c #D45CD1",
"F  c #D45DD1",
"G  c #D55FD2",
"H  c #E15ADA",
"J  c #E25ADA",
"K  c #CF77CE",
"L  c #D660D3",
"P  c #D762D3",
"I  c #DB6ED8",
"U  c #E278DF",
"Y  c #EB61E2",
"T  c #F468E9",
"R  c #B482B9",
"E  c #B482BA",
"W  c #B785BC",
"Q  c #B388BA",
"!  c #B48CBB",
"~  c #BD82C0",
"^  c #C28DC5",
"/  c #C28FC6",
"(  c #C191C6",
")  c #C294C6",
"_  c #C098C6",
"`  c #C29CC7",
"'  c #D293D2",
"]  c #EA88E6",
"[  c #EB89E6",
"{  c #EB89E7",
"}  c #EC8DE8",
"|  c #EC8FE8",
" . c #E891E4",
".. c #ED90E8",
"X. c #EE93E9",
"o. c #EE95E9",
"O. c #EE95EA",
"+. c #EE96EA",
"@. c #EF96EA",
"#. c #EF97EA",
"$. c #ED98E9",
"%. c #EF98EB",
"&. c #EF99EB",
"*. c #F09AEB",
"=. c #F09DEC",
"-. c #F19FEC",
";. c #F1A0EC",
":. c #F2A1ED",
">. c #F0A3EC",
",. c #F2A3ED",
"<. c #F3A5EE",
"1. c #F4A7EF",
"2. c #F3A8EE",
"3. c #F3AAEF",
"4. c #F4AAEF",
"5. c #F4ABEF",
"6. c #F3ACEF",
"7. c #F2AEEE",
"8. c #F2AFEF",
"9. c #F3B0EF",
"0. c #F1B3EE",
"q. c #F1B5EF",
"w. c #F4ACF0",
"e. c #F4ADF0",
"r. c #F5AFF0",
"t. c #F4B0F0",
"y. c #F6B1F1",
"u. c #F6B3F1",
"i. c #F3B6F0",
"p. c #F7B4F2",
"a. c #F7B5F2",
"s. c #F5B9F1",
"d. c #F7B9F2",
"f. c #F5BAF2",
"g. c #F8B9F3",
"h. c #F9BBF3",
"j. c #F9BCF4",
"k. c #E9C9E9",
"l. c #F6C1F3",
"z. c #F5C2F2",
"x. c #F4C3F2",
"c. c #F4C6F2",
"v. c #FAC1F5",
"b. c #FAC3F5",
"n. c #F4C8F2",
"m. c #F8CCF5",
"M. c #FACCF6",
"N. c #F7D2F5",
"B. c #F9D3F6",
"V. c #F9D6F6",
"C. c #F9D7F7",
"Z. c #FAD6F7",
"A. c #FAD7F7",
"S. c #FAD8F7",
"D. c #FADCF7",
"F. c #FADBF8",
"G. c #F8E3F7",
"H. c #FAE2F8",
"J. c #FAE5F9",
"K. c #F8E7F8",
"L. c #FAE6F8",
"P. c #FAE7F9",
"I. c #FAE8F9",
"U. c #FAEAF9",
"Y. c #FAEEF9",
"T. c #FAEFFA",
"R. c #F7F0F7",
"E. c #F7F1F7",
"W. c #FAF0F9",
"Q. c #FAF0FA",
"!. c #FAF3FA",
"~. c #FAF4FA",
"^. c None",
/* pixels */
"^.^.^.^.^.^.^.^.^.^.^.^.^.^.^.^.^.^.^.^.^.^.^.^.^.^.^.^.^.^.^.^.",
"^.^.^.^.^.^.^.^.^.^.^.^.^.^.^.^.^.^.^.^.^.^.^.^.^.^.^.^.^.^.^.^.",
"^.^.^.^.^.^.^.^.^.^.^.^.^.^.^.^.^.^.^.^.^.^.^.^.^.^.^.^.^.^.^.^.",
"^.^.^.^.^.^.^.^.^.^.^.^.^.^.^.^.^.^.^.^.^.^.^.^.^.^.^.^.^.^.^.^.",
"^.^.^.^.^.^.^.^.^.^.^.^.^.^.^.^.^.^.^.^.^.^.^.^.^.^.^.^.^.^.^.^.",
"^.^.^.^.^.^.^.^.^.^.; ; ; ; ; ; ; ; ; ; ; ; O ^.^.^.^.^.^.^.^.^.",
"^.^.^.^.^.^.^.^.^.< w e e e e e e e e q 4 q 3 . ^.^.^.^.^.^.^.^.",
"^.^.^.^.^.^.^.^.< f ] $.q.x.o.#.-.2.r.:.] ] z 3 o ^.^.^.^.^.^.^.",
"^.^.^.^.^.^.^.< a n.K.~.F.b.b.b.j.p.w.&.] ] ] g < o ^.^.^.^.^.^.",
"^.^.^.^.^.^.< s R.~.G.8.=.@...{ ] ] ] O.%.] ] ] g 3 o ^.^.^.^.^.",
"^.^.^.^.^.< d ~.!.Z.+.*.,.3.5.<.<.s.B.J.U.f.} #.i.l < X ^.^.^.^.",
"^.^.^.^.< d E.I.M.b.b.b.b.b.b.b.A.~.~.~.~.~.U.T.~.N.g 2   ^.^.^.",
"^.^.^.< 7 k.' x K 1.4.e.r.y.u.a.d.m.V.C.S.H.~.!.L.P.l.t < ^.^.^.",
"^.^.^.< , + + + $ I D V B B B B B N N N M U 7.6.| 9.~.y < ^.^.^.",
"^.^.^.& < @ + + + r v m m m m m m m m m C ] ] [ ;.h.` 6 * ^.^.^.",
"^.^.^.^.^.< = + + + 9 j m m m m m m m A >.:.X.g.b.E 1 < ^.^.^.^.",
"^.^.^.^.^.^.< = + + + 8 c m m m m m m  .b.b.v.b.W 1 : ^.^.^.^.^.",
"^.^.^.^.^.^.^.< = + + + 9 n m m m m m L ,.b.b.R 1 : ^.^.^.^.^.^.",
"^.^.^.^.^.^.^.^.< # + + + h S m m m m G a.b./ 1 - ^.^.^.^.^.^.^.",
"^.^.^.^.^.^.^.^.^.< # + + b T H m m F t.D.^ 5 : ^.^.^.^.^.^.^.^.",
"^.^.^.^.^.^.^.^.^.^.< = + i Y J m P z.Y.! 1 : ^.^.^.^.^.^.^.^.^.",
"^.^.^.^.^.^.^.^.^.^.^.< # + 0 p Z c.W.) 1 - ^.^.^.^.^.^.^.^.^.^.",
"^.^.^.^.^.^.^.^.^.^.^.^.< # + u 0.Q.( 5 : ^.^.^.^.^.^.^.^.^.^.^.",
"^.^.^.^.^.^.^.^.^.^.^.^.^.< = ~ Q.Q 1 < ^.^.^.^.^.^.^.^.^.^.^.^.",
"^.^.^.^.^.^.^.^.^.^.^.^.^.^.< k _ 1 > ^.^.^.^.^.^.^.^.^.^.^.^.^.",
"^.^.^.^.^.^.^.^.^.^.^.^.^.^.^.< 2 > ^.^.^.^.^.^.^.^.^.^.^.^.^.^.",
"^.^.^.^.^.^.^.^.^.^.^.^.^.^.^.^.% ^.^.^.^.^.^.^.^.^.^.^.^.^.^.^.",
"^.^.^.^.^.^.^.^.^.^.^.^.^.^.^.^.^.^.^.^.^.^.^.^.^.^.^.^.^.^.^.^.",
"^.^.^.^.^.^.^.^.^.^.^.^.^.^.^.^.^.^.^.^.^.^.^.^.^.^.^.^.^.^.^.^.",
"^.^.^.^.^.^.^.^.^.^.^.^.^.^.^.^.^.^.^.^.^.^.^.^.^.^.^.^.^.^.^.^.",
"^.^.^.^.^.^.^.^.^.^.^.^.^.^.^.^.^.^.^.^.^.^.^.^.^.^.^.^.^.^.^.^.",
"^.^.^.^.^.^.^.^.^.^.^.^.^.^.^.^.^.^.^.^.^.^.^.^.^.^.^.^.^.^.^.^."
};
