/* XPM */
static char *result[] = {
/* columns rows colors chars-per-pixel */
"32 32 9 1 ",
"  c #181425",
". c #193D3F",
"X c #262B44",
"o c #265C42",
"O c #3D8947",
"+ c #63C64D",
"@ c #C0CCDC",
"# c white",
"$ c None",
/* pixels */
"$$$$$$$$$$$$$$$$$$$$$$$$$$$$$$$$",
"$$$$$$$$$$$$$$$$$$$$$$$$$$$$$$$$",
"$$$$$$$$$$$$$$$$$$$$$$$$$$$$$$$$",
"$$$$$$$$$$$$$$$$$$$$$$$$$$$$$$$$",
"$$$$$$$$$$$$$$$$$$$$$$$$$$$$$$$$",
"$$$$$$$$$$$$       $$$$$$$$$$$$$",
"$$$$$$$$$$  ooooooo  $$$$$$$$$$$",
"$$$$$$$$$ ooOOOOOOOoo  $$$$$$$$$",
"$$$$$$$$ oOO###++++OOoo $$$$$$$$",
"$$$$$$$ oO+#+++++++++OOo $$$$$$$",
"$$$$$$ oO+#+++++++++++Ooo $$$$$$",
"$$$$$ oO+#++++++++#+#++Oo $$$$$$",
"$$$$$ oO#++++OOOOOO+++++Oo $$$$$",
"$$$$$ oO++++Oooooo#O#+++Oo $$$$$",
"$$$$$ oO#++OoooooooO++++Oo $$$$$",
"$$$$$ oO#+OoooooooooO+++Oo $$$$$",
"$$$$$$ oO+O.........O++Oo $$$$$$",
"$$$$$$$ o+O@@@X#X@@@O+Oo $$$$$$$",
"$$$$$$$ o+O@@@XXX@@@O+Oo $$$$$$$",
"$$$$$$$ o+O.........O+Oo $$$$$$$",
"$$$$$$$ o+OoooooooooO+Oo $$$$$$$",
"$$$$$$$ o++OoooooooO++Oo $$$$$$$",
"$$$$$$$ o+++OoooooO+++Oo $$$$$$$",
"$$$$$$$ o++++OOOOO++++Oo $$$$$$$",
"$$$$$$$ oO+++++++++++++Oo $$$$$$",
"$$$$$$$ oO+++++++++++++Ooo $$$$$",
"$$$$$$ oOO+++++++++++++OOo $$$$$",
"$$$$$$ oO++++++++++++++OOOo $$$$",
"$$$$$ oO++O+++++++++++O++Ooo $$$",
"$$$$ oO+OOOO+++++++++OOO++Oo $$$",
"$$$$ oOOOOOOO++++++OOOOOOOoo $$$",
"$$$$                         $$$"
};
