/* XPM */
static char *result[] = {
/* columns rows colors chars-per-pixel */
"32 32 9 1 ",
"  c #181425",
". c #193D3F",
"X c #262B44",
"o c #265C42",
"O c #3D8947",
"+ c #63C64D",
"@ c #C0CCDC",
"# c white",
"$ c None",
/* pixels */
"$$$$$$$$$$$$$$$$$$$$$$$$$$$$$$$$",
"$$$$$$$$$$$$$$$$$$$$$$$$$$$$$$$$",
"$$$$$$$$$$$$$$$$$$$$$$$$$$$$$$$$",
"$$$$$$$$$$$$$$$$$$$$$$$$$$$$$$$$",
"$$$$$$$$$$$$$$$$$$$$$$$$$$$$$$$$",
"$$$$$$$$$$$$$$$$$$$$$$$$$$$$$$$$",
"$$$$$$$$$$$$$$$$$$$$$$$$$$$$$$$$",
"$$$$$$$$$$$$$$$$$$$$$$$$$$$$$$$$",
"$$$$$$$$$$$$$$$$$$$$$$$$$$$$$$$$",
"$$$$$$$$$$$$$$$$$$$$$$$$$$$$$$$$",
"$$$$$$$$$$$$$$$$$$$$$$$$$$$$$$$$",
"$$$$$$$$$$$$$$$$$$$$$$$$$$$$$$$$",
"$$$$$$$$$              $$$$$$$$$",
"$$$$$$$$ oooooooooooooo $$$$$$$$",
"$$$$$$$ oOOOOOOOOOOOOOOo $$$$$$$",
"$$$$$$ oO+#####+++++++Ooo $$$$$$",
"$$$$$ oO+#++++++++#+#++Oo $$$$$$",
"$$$$$ o+#++++OOOOOO+++++Oo $$$$$",
"$$$$$ o+++++Oooooo#O#+++Oo $$$$$",
"$$$$$ o+#++OoooooooO++++Oo $$$$$",
"$$$$$ o+#+OoooooooooO+++Oo $$$$$",
"$$$$$ o+++O.........O+++Oo $$$$$",
"$$$$$ o+++O@@@X#X@@@O+++Oo $$$$$",
"$$$$$ o+++O.........O+++Oo $$$$$",
"$$$$$ o+++OoooooooooO+++Oo $$$$$",
"$$$$$ o++++OoooooooO++++Oo $$$$$",
"$$$$$ oO++++OoooooO+++++Oo $$$$$",
"$$$  ooO+++++OOOOO+++++OOOo  $$$",
"$$ ooOO+++++++++++++++++++Ooo $$",
"$ ooO+++O++++++++++++++OO++Ooo $",
" oo++OOOOO++++++++++++OOOO++ooo ",
"                                "
};
