/* XPM */
static char *_b62484591424da5e4ae4c6e896fcac9QjH4tuNBFxb28PgF[] = {
/* columns rows colors chars-per-pixel */
"32 32 6 1 ",
"  c None",
". c black",
"X c #474B6C",
"o c #6F757F",
"O c #A1AAB8",
"+ c #D0D1D3",
/* pixels */
"                                ",
"              ....              ",
"            ..oooo..            ",
"          ..oooooooo..          ",
"         .ooooXXXXoooo.         ",
"        .oooXXX..XXXooo.        ",
"       .oooX..X..X..Xooo.       ",
"       .ooXX..o..o..XXoo.       ",
"      .oooXo..o..o..oXooo.      ",
"      .ooX.o..o..o..o.Xoo.      ",
"      .ooX.o..o..o..o.Xoo.      ",
"     .ooX..o..o..+..o..Xoo.     ",
"     .ooX..o..+..+..o..Xoo.     ",
"     .ooX..+..+..o..o..Xoo.     ",
"     .ooX..o..+..+..o..Xoo.     ",
"     .ooX..+..+..+..+..Xoo.     ",
"     .ooX..+..+..+..+..Xoo.     ",
"     .ooX..+..+..+..+..Xoo.     ",
"     .ooX..o..+..o..+..Xoo.     ",
"     .ooX..o..o..+..+..Xoo.     ",
"     .ooX..o..+..+..o..Xoo.     ",
"     .ooX..+..+..+..+..Xoo.     ",
"     .ooX..+..+..+..+..Xoo.     ",
"     .ooX..o..+..+..o..Xoo.     ",
"     .ooX..o..o..o..o..Xoo.     ",
"     .ooX..o..o..o..o..Xoo.     ",
"     .ooX..o..o..o..o..Xoo.     ",
"    ..XXXXXXXXXXXXXXXXXXXX..    ",
"   .OOOOOOOOOOOOOOOOOOOOOOOO.   ",
"   .Oooooooooooooooooooooooo.   ",
"   ..........................   ",
"                                "
};
