/* XPM */
static char *f7a2905206394906e45233b586583f3bpXlsxdQYgXBmBrLh[] = {
/* columns rows colors chars-per-pixel */
"32 32 7 1 ",
"  c None",
". c #A44405",
"X c #F87722",
"o c #FA8E2D",
"O c #FFAD34",
"+ c #FFC648",
"@ c #FFE762",
/* pixels */
"                                ",
"                                ",
"                                ",
"                                ",
"                                ",
"                                ",
"              ..                ",
"             .XX.               ",
"            .X+.                ",
"           .X++X.               ",
"           .X+O+X.              ",
"          .X+OOOX.              ",
"          .X+OOO+X.             ",
"         .XX+O+OO+X.            ",
"         .X+OOO+OO+X.           ",
"        .X+OOOO++OO+X.          ",
"       .X+OOO++++OOOX.          ",
"       .XOOO++++++OOOX.         ",
"       .XOO+++++++++OXX.        ",
"       .XO+oooo+ooooOOX.        ",
"       .XO++@o+++@o+OOX.        ",
"       .XOO+@o+++@o+OOX.        ",
"       .XOO+++ooo+++OOX.        ",
"       .XOO+++ooo+++OOX.        ",
"       .XOOO++++++++OOX.        ",
"       .XOOOO++++++OOX.         ",
"        .XOOOOOOOOOOX.          ",
"         .XXOOOOOOXX.           ",
"          ..XXXXXX..            ",
"            ......              ",
"                                ",
"                                "
};
