/* XPM */
static char *_c07745b32f24a5dd593fe4ba2c744cf7fS4GjsMCo6F83oO[] = {
/* columns rows colors chars-per-pixel */
"32 32 7 1 ",
"  c None",
". c #A44405",
"X c #F87722",
"o c #FA8E2D",
"O c #FFAD34",
"+ c #FFC648",
"@ c #FFE762",
/* pixels */
"                                ",
"                                ",
"                                ",
"                                ",
"                                ",
"            ..                  ",
"           .XX.                 ",
"            .XX.                ",
"           .X++X.               ",
"            .X++X.              ",
"            .X+O+X.             ",
"           .X+OOO+X.            ",
"          .X+OOOOO+X.           ",
"         .X+OOO+OOO+X.          ",
"        .XOOOO+++OOOX.          ",
"        .XO++++++++OOX.         ",
"        .XO+++++++++OX.         ",
"        .XOoooo+ooooOX.         ",
"        .XO+@o+++@o+OX.         ",
"        .XO+@o+++@o+OX.         ",
"        .XO+++ooo+++OX.         ",
"        .XOO++ooo++OOX.         ",
"        .XOO+++++++OOX.         ",
"        .XOO+++++++OOX.         ",
"        .XOOO+++++OOOX.         ",
"        .XOOOO+++OOOOX.         ",
"         .XOOOOOOOOOX.          ",
"          .XXXXXXXXX.           ",
"           .........            ",
"                                ",
"                                ",
"                                "
};
