/* XPM */
static char *e246e67289fd4f0a942c218f62e61a4dGHntjZgkHzxjPNZ4[] = {
/* columns rows colors chars-per-pixel */
"32 32 7 1 ",
"  c None",
". c #A44405",
"X c #F87722",
"o c #FA8E2D",
"O c #FFAD34",
"+ c #FFC648",
"@ c #FFE762",
/* pixels */
"                                ",
"                                ",
"                                ",
"                                ",
"                                ",
"                                ",
"              .                 ",
"             .X.                ",
"             .XX.               ",
"             .X+X.              ",
"             .X++X.             ",
"            .X+OO+X.            ",
"           .X+OOO+X.            ",
"           .X+OOOO+X.           ",
"          .X+OO+OOO+X.          ",
"         .X+OOO++OOO+X.         ",
"        .X+OOO++++OOO+X.        ",
"        .X+OO+++++OOOOOX.       ",
"       .XOOOO+++++++OOOX.       ",
"       .XOO++++++++++OOX.       ",
"       .XOO+oooo+ooooOOX.       ",
"       .XOO++@o+++@o+OOX.       ",
"       .XOO++++++++++OOX.       ",
"       .XOO++++ooo+++OOX.       ",
"       .XOOOO++ooo++OOOX.       ",
"        .XOOOO+++++OOOX.        ",
"         .XOOOOOOOOOOX.         ",
"          .XXXXXXXXXX.          ",
"           ..........           ",
"                                ",
"                                ",
"                                "
};
