/* XPM */
static char *_7f42ccf3d57468eedb5bb4a749c314ftaWu6R01vjXPTUmA[] = {
/* columns rows colors chars-per-pixel */
"32 32 7 1 ",
"  c None",
". c #A44405",
"X c #F87722",
"o c #FA8E2D",
"O c #FFAD34",
"+ c #FFC648",
"@ c #FFE762",
/* pixels */
"                                ",
"                                ",
"                                ",
"                                ",
"                                ",
"               .                ",
"              .X.               ",
"            ..XX.               ",
"           .XX+X.               ",
"          .XX++X.               ",
"         .X++OO+X.              ",
"         .X+OOOO+X.             ",
"         .X+OO+O+X.             ",
"        .X++O++OO+X.            ",
"        .X+OO+OOOO+X.           ",
"       .X++O+++OOOO+X.          ",
"      .X++OO++++++OOX.          ",
"      .X+OO++++++++O+X.         ",
"     .XOOO+++++++++++X.         ",
"     .XOO++oooo+ooooOX.         ",
"     .XOO+++@o+++@o+OX.         ",
"     .XOO+++@o+++@o+OX.         ",
"     .XOOO++++ooo++OOX.         ",
"     .XOOOO+++ooo++OOX.         ",
"      .XOOOO++++++OOOX.         ",
"       .XOOOO++++OOOOX.         ",
"        .XOOOOOOOOOOX.          ",
"         .XOOOOOOOXX.           ",
"          .XXXXXXX..            ",
"           .......              ",
"                                ",
"                                "
};
