/* XPM */
static char *e9632606ae6743ea9e7bf6cc0fd27595ynKcQjizL8dEAAZn[] = {
/* columns rows colors chars-per-pixel */
"32 32 187 2 ",
"   c #693C53",
".  c #6A3C53",
"X  c #6B3C53",
"o  c #6A3D53",
"O  c #6B3D53",
"+  c #6C3D52",
"@  c #6C3D53",
"#  c #6C3E53",
"$  c #6D3E53",
"%  c #6D3F53",
"&  c #6E3E53",
"*  c #6E3F53",
"=  c #6F3F53",
"-  c #713F52",
";  c #6F4053",
":  c #704153",
">  c #764151",
",  c #754352",
"<  c #754353",
"1  c #764353",
"2  c #764452",
"3  c #774452",
"4  c #724354",
"5  c #734354",
"6  c #784251",
"7  c #794351",
"8  c #7A4351",
"9  c #7D4350",
"0  c #784452",
"q  c #794552",
"w  c #794553",
"e  c #7A4552",
"r  c #794653",
"t  c #7A4652",
"y  c #7B4652",
"u  c #7A4653",
"i  c #7F4450",
"p  c #7C4652",
"a  c #7C4752",
"s  c #7D4752",
"d  c #7C4753",
"f  c #7C4754",
"g  c #7D4952",
"h  c #7E4852",
"j  c #82464F",
"k  c #84464F",
"l  c #86474F",
"z  c #87474F",
"x  c #89484E",
"c  c #89494E",
"v  c #8A484E",
"b  c #8B494E",
"n  c #934C4D",
"m  c #944C4D",
"M  c #954C4D",
"N  c #954D4D",
"B  c #964D4D",
"V  c #944E4D",
"C  c #974E4D",
"Z  c #964F4D",
"A  c #994F4D",
"S  c #97504D",
"D  c #97504E",
"F  c #9B514E",
"G  c #9A524E",
"H  c #9B524E",
"J  c #9B534E",
"K  c #9C524E",
"L  c #9D534E",
"P  c #9E544E",
"I  c #9F554E",
"U  c #844B52",
"Y  c #814E55",
"T  c #824F55",
"R  c #8B4F51",
"E  c #875256",
"W  c #875356",
"Q  c #8C5052",
"!  c #8D5353",
"~  c #905252",
"^  c #925452",
"/  c #945451",
"(  c #955551",
")  c #975651",
"_  c #945452",
"`  c #965652",
"'  c #915454",
"]  c #995751",
"[  c #985852",
"{  c #9D5A51",
"}  c #A1564E",
"|  c #A3594E",
" . c #A85D4F",
".. c #A45E51",
"X. c #A65F51",
"o. c #A65D53",
"O. c #AB5F50",
"+. c #A76252",
"@. c #A86151",
"#. c #AB6050",
"$. c #AB6150",
"%. c #AA6151",
"&. c #AA6251",
"*. c #AB6251",
"=. c #AD6150",
"-. c #AD6250",
";. c #AE6250",
":. c #AE6350",
">. c #AF6350",
",. c #B16551",
"<. c #B16651",
"1. c #B26651",
"2. c #B26751",
"3. c #B36751",
"4. c #B26753",
"5. c #B16655",
"6. c #B26756",
"7. c #B36853",
"8. c #B46851",
"9. c #B46852",
"0. c #B56952",
"q. c #B76B52",
"w. c #B76B53",
"e. c #B36C52",
"r. c #B46D52",
"t. c #B56E53",
"y. c #B36954",
"u. c #B36856",
"i. c #B66B54",
"p. c #B56B56",
"a. c #B66C54",
"s. c #B76C57",
"d. c #B86C53",
"f. c #B96D53",
"g. c #BA6E53",
"h. c #B96F55",
"j. c #B96F57",
"k. c #B06B5B",
"l. c #BB7155",
"z. c #BB7354",
"x. c #BD7155",
"c. c #BC7455",
"v. c #B6715D",
"b. c #C37757",
"n. c #C57957",
"m. c #C57E57",
"M. c #C67A58",
"N. c #C77E59",
"B. c #CA7E5A",
"V. c #CB7F5A",
"C. c #CA7E5B",
"Z. c #CD7F5F",
"A. c #CB8159",
"S. c #CC805A",
"D. c #CC805B",
"F. c #CC835A",
"G. c #CC835B",
"H. c #CF835B",
"J. c #CD825C",
"K. c #CE825C",
"L. c #CF805E",
"P. c #CF8A5D",
"I. c #D1855B",
"U. c #D2865C",
"Y. c #D3865C",
"T. c #D1895C",
"R. c #D3885D",
"E. c #D4885D",
"W. c #D4895D",
"Q. c #D78B5E",
"!. c #D48C5C",
"~. c #D58D5C",
"^. c #D78C5E",
"/. c #D88C5E",
"(. c #D98D5E",
"). c #DA8E5F",
"_. c #DB8F5F",
"`. c #D8905E",
"'. c #D9925E",
"]. c #DC905F",
"[. c #DC945F",
"{. c #DD955F",
"}. c #DE965F",
"|. c #DD9060",
" X c #DD9160",
".X c #DE9160",
"XX c #DE9260",
/* pixels */
"  5 }.}.}.}.}.}.}.}.}.}.}.}.}.}.}.}.}.}.}.}.}.}.}.}.}.}.}.}.W ; ",
"  5 }.}.}.}.}.}.}.}.}.}.}.}.}.}.}.}.}.}.}.}.}.}.}.}.}.}.}.}.W   ",
"  5 }.}.}.}.}.}.}.}.}.}.}.}.}.}.}.}.}.}.}.}.}.}.}.}.}.}.}.}.W   ",
"    T.XX}.}.}.}.}.}.}.}.}.}.}.}.}.}.}.}.}.}.}.}.}.}.}.}.}.}.;   ",
"  o @.g.l.q.g.A.XX}.F.z.q.p.l.B.}.}.!.z.z.A.}.}.}.XXF.j.p.p.    ",
"  o <.3.8.<.8.8.!.'.8.u.u.8.5.<.P.{.q.r.r.e.`.XX}.`.5.u.k.u.,   ",
"  o 3.3.<.8.<.8.! ; @ y a a y =   4 = 3 a ;   g E     ^ u.k.a   ",
"o @ 8.<.8.<.8.( o o o         .                     . 4 o.:.;   ",
"  @ 8.3.3.3.] o j n B B B B B B B B B B M n n B n n B B B B     ",
"  @ 3.3.3.3.U 9 B B B B B B B B B B B B B B B B B B B B B B =   ",
"o @ 3.3.8.3.I B B B u.U.Q.).)._._._._._.)._._._.`.).).^.^.E.    ",
"o - 3.3.<.8.K B B B J.XXXXXXXXXXXXXXXXXXXXXXXXXXXXXX].XX].].4   ",
"o @ 3.3.3.3.K B B B O.M.XXXXXXXXU.q.3.3.8.M.XXXXM.8.3.3.8.<.    ",
"  5 3.3.3.3.F B B B -.8.I.XXXXE.8.3.3.3.3.3.B.J.3.3.3.3.8.8.y   ",
"  @ 8.3.3.3.K B B B -.<.<.x.x.8.3.3.3.3.3.3.3.3.3.3.3.3.8.<.y . ",
"  @ 3.3.3.3.K B B B -.8.8.3.3.3.3.3.3.3.3.3.3.3.3.3.3.8.<.<.y   ",
"o @ 3.3.3.3.K B B B -.8.<.8.( 3 , , , , , , , , y / 3.3.3.3.d   ",
"  - 3.3.3.<.K B B B :.<.8.8.y                     , 3.3.3.3.y   ",
"  - 3.3.3.3.A B B B :.8.<.8.F n S n B c k.v.] ] l B 8.3.3.3.y   ",
"o @ 3.3.3.3.K B B B :.<.8.<.K A S B S S Z.Z.3.3.B A <.8.3.<.y   ",
"o - <.8.3.3.K B B B -.8.<.8.B.F.A.C.-.<.3.3.3.3.B A 3.3.3.3.d . ",
"  @ 3.3.3.3.K M B B -.<.8.<.B.].|.U.<.8.3.3.3.@.B B 3.3.3.3.y . ",
"o @ 3.3.3.3.K B B M 8 / <.8.8.8.i.8.<.8.3.8.^ 8 B B 8.3.8.<.y . ",
"o @ 3.3.3.<.O.B B M j   / o.@.@.@.-.@.@.o.^ o j B B <.8.<.<.y . ",
"o @ 3.3.3.3.3...B B B z . .             . . 9 B B B 3.3.3.3.y   ",
"o @ 3.3.3.3.3.<.} C B B > . . .       .   , B B B I 3.3.3.3.y   ",
"  o <.3.3.3.3.3.8.K B B B c x z z x x x x M B B K <.3.3.<.<.y . ",
"    { 3.3.3.3.3.8.8.K B B B B B B B B B B B B } <.8.3.3.3.<.y   ",
"    o R <.3.3.3.8.8.<.=.:.=.=.=.=.=.=.=.-.O.-.3.3.3.<.8.3.<., o ",
"        R 3.3.3.<.<.8.8.8.8.8.<.<.8.8.8.3.<.<.8.3.3.8.<.3.]     ",
"        o 8 j f y y y 3 y y y y y y d d y g y y d d y 3 8       ",
"                              . . . . .       . . .     o       "
};
